<svg width="40" height="34" viewBox="0 0 40 34" fill="none" xmlns="http://www.w3.org/2000/svg">
<path d="M30.5805 32.6808C30.3623 33.3289 30.8444 33.9998 31.5282 33.9998H39C39.5523 33.9998 40 33.5521 40 32.9998V10.1019C39.9899 9.10191 38.5907 8.87999 38.2717 9.82776L30.5805 32.6808Z" fill="white"/>
<path d="M13.7737 10.1019V32.9998C13.7737 33.5521 14.2214 33.9998 14.7737 33.9998H22.2119C22.8953 33.9998 23.3773 33.3297 23.16 32.6819L15.4966 9.82958C15.1795 8.88407 13.7838 9.10466 13.7737 10.1019Z" fill="white"/>
<path d="M0 28.3839C0 28.7009 0.150231 28.999 0.404936 29.1876L5.30935 32.819C5.96934 33.3076 6.90442 32.8365 6.90442 32.0153V1C6.90442 0.447716 6.4567 0 5.90442 0H1C0.447715 0 0 0.447715 0 1V28.3839Z" fill="white"/>
<path d="M19.9011 0C19.223 0 18.7415 0.660521 18.949 1.30604L25.8811 22.8698C26.1777 23.7927 27.4823 23.7959 27.7836 22.8745L34.8333 1.31074C35.0447 0.664283 34.563 0 33.8828 0H19.9011Z" fill="white"/>
</svg>
